HIERARCHY
ROOT Hips
{
  OFFSET 5.72205e-005 65.662 3.42586
  CHANNELS 6 Xposition Yposition Zposition Zrotation Xrotation Yrotation
  JOINT Chest
  {
    OFFSET 0 8.7983 -4.7612
    CHANNELS 6 Xposition Yposition Zposition Zrotation Xrotation Yrotation
    JOINT Chest2
    {
      OFFSET 0 8.0291 0.4195
      CHANNELS 6 Xposition Yposition Zposition Zrotation Xrotation Yrotation
      JOINT Chest3
      {
        OFFSET 0 9.9351 -2.2114
        CHANNELS 6 Xposition Yposition Zposition Zrotation Xrotation Yrotation
        JOINT Neck
        {
          OFFSET 0 22.3885 -0.4656
          CHANNELS 6 Xposition Yposition Zposition Zrotation Xrotation Yrotation
          JOINT Head
          {
            OFFSET -0.0001 12.643 3.4389
            CHANNELS 6 Xposition Yposition Zposition Zrotation Xrotation Yrotation
            End Site
            {
              OFFSET 0.0001 17.6655 0.5274
            }
          }
        }
        JOINT LeftCollar
        {
          OFFSET 2.2603 21.606 7.4023
          CHANNELS 6 Xposition Yposition Zposition Zrotation Xrotation Yrotation
          JOINT LeftShoulder
          {
            OFFSET 13.5163 -1.1332 -5.0146
            CHANNELS 6 Xposition Yposition Zposition Zrotation Xrotation Yrotation
            JOINT LeftElbow
            {
              OFFSET -0.0995 -28.05 -0.2431
              CHANNELS 6 Xposition Yposition Zposition Zrotation Xrotation Yrotation
              JOINT LeftWrist
              {
                OFFSET 0.0679 -23.3996 -0.1402
                CHANNELS 6 Xposition Yposition Zposition Zrotation Xrotation Yrotation
                JOINT LeftFinger1
                {
                  OFFSET 0.7932 -9.069 2.5189
                  CHANNELS 6 Xposition Yposition Zposition Zrotation Xrotation Yrotation
                  JOINT LeftFinger11
                  {
                    OFFSET -0.8272 -3.3923 0.5977
                    CHANNELS 6 Xposition Yposition Zposition Zrotation Xrotation Yrotation
                    JOINT LeftFinger12
                    {
                      OFFSET -0.5649 -2.3158 0.4082
                      CHANNELS 6 Xposition Yposition Zposition Zrotation Xrotation Yrotation
                      End Site
                      {
                        OFFSET -0.4919 -1.6479 0.2673
                      }
                    }
                  }
                }
                JOINT LeftFinger2
                {
                  OFFSET 0.9159 -9.2044 0.2193
                  CHANNELS 6 Xposition Yposition Zposition Zrotation Xrotation Yrotation
                  JOINT LeftFinger21
                  {
                    OFFSET 0.0117 -4.1944 -0.0248
                    CHANNELS 6 Xposition Yposition Zposition Zrotation Xrotation Yrotation
                    JOINT LeftFinger22
                    {
                      OFFSET 0.0071 -2.3249 -0.0142
                      CHANNELS 6 Xposition Yposition Zposition Zrotation Xrotation Yrotation
                      End Site
                      {
                        OFFSET -0.1475 -2.0882 0.0028
                      }
                    }
                  }
                }
                JOINT LeftFinger3
                {
                  OFFSET 0.6113 -8.7231 -2.0637
                  CHANNELS 6 Xposition Yposition Zposition Zrotation Xrotation Yrotation
                  JOINT LeftFinger31
                  {
                    OFFSET -0.1927 -3.8059 -0.2383
                    CHANNELS 6 Xposition Yposition Zposition Zrotation Xrotation Yrotation
                    JOINT LeftFinger32
                    {
                      OFFSET -0.1091 -2.1688 -0.1362
                      CHANNELS 6 Xposition Yposition Zposition Zrotation Xrotation Yrotation
                      End Site
                      {
                        OFFSET -0.2358 -1.9176 -0.0906
                      }
                    }
                  }
                }
                JOINT LeftFinger4
                {
                  OFFSET -0.6151 -8.0947 -3.5641
                  CHANNELS 6 Xposition Yposition Zposition Zrotation Xrotation Yrotation
                  JOINT LeftFinger41
                  {
                    OFFSET -0.4882 -2.341 -0.6462
                    CHANNELS 6 Xposition Yposition Zposition Zrotation Xrotation Yrotation
                    JOINT LeftFinger42
                    {
                      OFFSET -0.3575 -1.7167 -0.4742
                      CHANNELS 6 Xposition Yposition Zposition Zrotation Xrotation Yrotation
                      End Site
                      {
                        OFFSET -0.4187 -1.5237 -0.3496
                      }
                    }
                  }
                }
                JOINT LeftFinger0
                {
                  OFFSET -1.42 -1.8761 1.4223
                  CHANNELS 6 Xposition Yposition Zposition Zrotation Xrotation Yrotation
                  JOINT LeftFinger01
                  {
                    OFFSET -1.1471 -3.4929 2.6334
                    CHANNELS 6 Xposition Yposition Zposition Zrotation Xrotation Yrotation
                    JOINT LeftFinger02
                    {
                      OFFSET -0.823 -2.3 1.6571
                      CHANNELS 6 Xposition Yposition Zposition Zrotation Xrotation Yrotation
                      End Site
                      {
                        OFFSET -0.5822 -1.6914 1.1582
                      }
                    }
                  }
                }
              }
            }
          }
        }
        JOINT RightCollar
        {
          OFFSET -2.2603 21.606 7.4023
          CHANNELS 6 Xposition Yposition Zposition Zrotation Xrotation Yrotation
          JOINT RightShoulder
          {
            OFFSET -13.5187 -1.1334 -5.0155
            CHANNELS 6 Xposition Yposition Zposition Zrotation Xrotation Yrotation
            JOINT RightElbow
            {
              OFFSET 0.0994 -28.0499 -0.2431
              CHANNELS 6 Xposition Yposition Zposition Zrotation Xrotation Yrotation
              JOINT RightWrist
              {
                OFFSET -0.0679 -23.3996 -0.1402
                CHANNELS 6 Xposition Yposition Zposition Zrotation Xrotation Yrotation
                JOINT RightFinger1
                {
                  OFFSET -0.7932 -9.0691 2.5189
                  CHANNELS 6 Xposition Yposition Zposition Zrotation Xrotation Yrotation
                  JOINT RightFinger11
                  {
                    OFFSET 0.8272 -3.3923 0.5977
                    CHANNELS 6 Xposition Yposition Zposition Zrotation Xrotation Yrotation
                    JOINT RightFinger12
                    {
                      OFFSET 0.565 -2.3158 0.4082
                      CHANNELS 6 Xposition Yposition Zposition Zrotation Xrotation Yrotation
                      End Site
                      {
                        OFFSET 0.4919 -1.6479 0.2673
                      }
                    }
                  }
                }
                JOINT RightFinger2
                {
                  OFFSET -0.916 -9.2044 0.2193
                  CHANNELS 6 Xposition Yposition Zposition Zrotation Xrotation Yrotation
                  JOINT RightFinger21
                  {
                    OFFSET -0.0117 -4.1944 -0.0248
                    CHANNELS 6 Xposition Yposition Zposition Zrotation Xrotation Yrotation
                    JOINT RightFinger22
                    {
                      OFFSET -0.0071 -2.3249 -0.0142
                      CHANNELS 6 Xposition Yposition Zposition Zrotation Xrotation Yrotation
                      End Site
                      {
                        OFFSET 0.1475 -2.0882 0.0028
                      }
                    }
                  }
                }
                JOINT RightFinger3
                {
                  OFFSET -0.6113 -8.7231 -2.0637
                  CHANNELS 6 Xposition Yposition Zposition Zrotation Xrotation Yrotation
                  JOINT RightFinger31
                  {
                    OFFSET 0.1927 -3.8059 -0.2383
                    CHANNELS 6 Xposition Yposition Zposition Zrotation Xrotation Yrotation
                    JOINT RightFinger32
                    {
                      OFFSET 0.1091 -2.1688 -0.1362
                      CHANNELS 6 Xposition Yposition Zposition Zrotation Xrotation Yrotation
                      End Site
                      {
                        OFFSET 0.2358 -1.9176 -0.0906
                      }
                    }
                  }
                }
                JOINT RightFinger4
                {
                  OFFSET 0.6151 -8.0947 -3.564
                  CHANNELS 6 Xposition Yposition Zposition Zrotation Xrotation Yrotation
                  JOINT RightFinger41
                  {
                    OFFSET 0.4882 -2.341 -0.6462
                    CHANNELS 6 Xposition Yposition Zposition Zrotation Xrotation Yrotation
                    JOINT RightFinger42
                    {
                      OFFSET 0.3574 -1.7166 -0.4742
                      CHANNELS 6 Xposition Yposition Zposition Zrotation Xrotation Yrotation
                      End Site
                      {
                        OFFSET 0.4187 -1.5237 -0.3496
                      }
                    }
                  }
                }
                JOINT RightFinger0
                {
                  OFFSET 1.4199 -1.8761 1.4221
                  CHANNELS 6 Xposition Yposition Zposition Zrotation Xrotation Yrotation
                  JOINT RightFinger01
                  {
                    OFFSET 1.1472 -3.4929 2.6336
                    CHANNELS 6 Xposition Yposition Zposition Zrotation Xrotation Yrotation
                    JOINT RightFinger02
                    {
                      OFFSET 0.8229 -2.3 1.6571
                      CHANNELS 6 Xposition Yposition Zposition Zrotation Xrotation Yrotation
                      End Site
                      {
                        OFFSET 0.5822 -1.6914 1.1582
                      }
                    }
                  }
                }
              }
            }
          }
        }
      }
    }
  }
  JOINT RightHip
  {
    OFFSET -9.412 3.9771 -0.7758
    CHANNELS 6 Xposition Yposition Zposition Zrotation Xrotation Yrotation
    JOINT RightKnee
    {
      OFFSET -0.7531 -40.938 0
      CHANNELS 6 Xposition Yposition Zposition Zrotation Xrotation Yrotation
      JOINT RightAnkle
      {
        OFFSET 0 -40.1986 0
        CHANNELS 6 Xposition Yposition Zposition Zrotation Xrotation Yrotation
        JOINT RightToe
        {
          OFFSET 0 -4.4182 9.239
          CHANNELS 6 Xposition Yposition Zposition Zrotation Xrotation Yrotation
          End Site
          {
            OFFSET 0 0 6.1981
          }
        }
      }
    }
  }
  JOINT LeftHip
  {
    OFFSET 9.4119 3.9773 -0.7758
    CHANNELS 6 Xposition Yposition Zposition Zrotation Xrotation Yrotation
    JOINT LeftKnee
    {
      OFFSET 0.7532 -40.9383 0
      CHANNELS 6 Xposition Yposition Zposition Zrotation Xrotation Yrotation
      JOINT LeftAnkle
      {
        OFFSET 0 -40.1986 0
        CHANNELS 6 Xposition Yposition Zposition Zrotation Xrotation Yrotation
        JOINT LeftToe
        {
          OFFSET 0 -4.4182 9.239
          CHANNELS 6 Xposition Yposition Zposition Zrotation Xrotation Yrotation
          End Site
          {
            OFFSET 0 0 6.1981
          }
        }
      }
    }
  }
}
MOTION
Frames:	4
Frame Time:	0.0333333
7.92823 1.26335 -47.4895 0 0 -1.77235e-009 0 8.7983 -4.7612 0.232387 1.09912 -0.102027 0 8.0291 0.4195 0.466863 2.19782 -0.208572 0 9.9351 -2.2114 0.46686 2.19781 -0.20857 -1.77636e-015 22.3885 -0.4656 15.8161 -4.58559 13.3947 -0.0001 12.643 3.4389 0.028345 9.2876 4.63957 2.2603 21.606 7.4023 -21.241 -9.4184 -22.6713 13.5163 -1.1332 -5.0146 54.9056 -37.6631 12.9435 -0.0995 -28.05 -0.2431 -33.8828 -33.9172 -15.6703 0.0679 -23.3996 -0.1402 -27.8512 -3.09409 -40.1333 0.7932 -9.069 2.5189 6.43091e-006 -9.7602e-006 -2.21225e-006 -0.8272 -3.3923 0.5977 -3.18055e-015 -1.59028e-014 -6.36111e-015 -0.5649 -2.3158 0.4082 -7.36621e-006 -2.03357e-006 -1.7856e-006 0.9159 -9.2044 0.2193 6.43091e-006 -9.7602e-006 -2.21225e-006 0.0117 -4.1944 -0.0248 -0.0128435 0.00233553 7.94281e-005 0.0071 -2.3249 -0.0142 -8.06845e-007 -1.85497e-006 1.91343e-006 0.6113 -8.7231 -2.0637 6.43091e-006 -9.7602e-006 -2.21225e-006 -0.1927 -3.8059 -0.2383 -0.0160426 0.00299614 0.000853683 -0.1091 -2.1688 -0.1362 -8.07019e-007 -1.85492e-006 1.91346e-006 -0.6151 -8.0947 -3.5641 6.43091e-006 -9.7602e-006 -2.21225e-006 -0.4882 -2.341 -0.6462 -0.0126011 0.00312806 0.00282843 -0.3575 -1.7167 -0.4742 -9.91527e-006 1.82815e-006 -1.95673e-006 -1.42 -1.8761 1.4223 6.43091e-006 -9.7602e-006 -2.21225e-006 -1.1471 -3.4929 2.6334 -3.18055e-015 -1.59028e-014 -6.36111e-015 -0.823 -2.3 1.6571 -7.36621e-006 -2.03357e-006 -1.7856e-006 -2.2603 21.606 7.4023 18.376 -10.0201 3.51271 -13.5187 -1.1334 -5.0155 -43.1863 -44.6775 -2.29832 0.0994 -28.0499 -0.2431 40.2113 -27.0473 18.6095 -0.0679 -23.3996 -0.1402 22.4429 1.41629 -64.1951 -0.7932 -9.0691 2.5189 -1.31119e-005 4.86526e-006 8.00803e-006 0.8272 -3.3923 0.5977 7.40352e-007 3.65905e-006 4.33046e-006 0.565 -2.3158 0.4082 -1.59028e-015 -3.18055e-015 -1.59028e-015 -0.916 -9.2044 0.2193 -1.31119e-005 4.86526e-006 8.00803e-006 -0.0117 -4.1944 -0.0248 0.0129715 0.0023079 -8.66727e-005 -0.0071 -2.3249 -0.0142 -8.53802e-006 1.05722e-005 3.66763e-006 -0.6113 -8.7231 -2.0637 -1.31119e-005 4.86526e-006 8.00803e-006 0.1927 -3.8059 -0.2383 0.0163457 0.00304452 -0.000876495 0.1091 -2.1688 -0.1362 -5.56597e-015 3.18055e-015 6.36111e-015 0.6151 -8.0947 -3.564 -1.31119e-005 4.86526e-006 8.00803e-006 0.4882 -2.341 -0.6462 0.0145836 0.00367336 -0.00326448 0.3574 -1.7166 -0.4742 -4.77083e-015 -6.36111e-015 4.77083e-015 1.4199 -1.8761 1.4221 -1.31119e-005 4.86526e-006 8.00803e-006 1.1472 -3.4929 2.6336 7.40352e-007 3.65905e-006 4.33046e-006 0.8229 -2.3 1.6571 -1.59028e-015 -3.18055e-015 -1.59028e-015 -9.412 3.9771 -0.7758 -8.30276 -52.2517 -19.9169 -0.7531 -40.938 -3.55271e-015 -177.316 13.2856 168.971 -8.88179e-016 -40.1986 3.55271e-015 -5.72609 37.8035 -11.0613 0 -4.4182 9.239 8.82781e-032 3.18055e-015 -1.59028e-015 9.4119 3.9773 -0.7758 8.34842 -51.9979 19.9238 0.7532 -40.9383 0 177.343 13.2599 -168.978 0 -40.1986 3.55271e-015 5.96663 36.9519 10.9314 1.77636e-015 -4.4182 9.239 -3.73077e-007 6.68891e-008 2.0545e-007 
7.92823 1.26335 -47.4895 4.25358e-007 1.68802e-006 -2.46845e-009 0 8.7983 -4.7612 0.231894 1.04532 -0.101204 -8.88178e-016 8.0291 0.4195 0.465748 2.0902 -0.206691 -8.88179e-016 9.9351 -2.2114 0.465748 2.0902 -0.206691 -8.88179e-016 22.3885 -0.4656 15.6383 -4.55558 13.2422 -0.0001 12.643 3.4389 0.032049 9.1861 4.58833 2.2603 21.606 7.4023 -21.1733 -9.005 -22.391 13.5163 -1.1332 -5.0146 54.6879 -37.8072 12.7878 -0.0995 -28.05 -0.2431 -34.1909 -34.0685 -15.8559 0.0679 -23.3996 -0.1402 -26.8881 -2.88369 -40.1362 0.7932 -9.069 2.5189 -6.36111e-015 -6.36111e-015 -0 -0.8272 -3.3923 0.5977 -3.18055e-015 -3.18055e-015 -0 -0.5649 -2.3158 0.4082 -3.18055e-015 3.18055e-015 -0 0.9159 -9.2044 0.2193 -6.36111e-015 -6.36111e-015 -0 0.0117 -4.1944 -0.0248 -0.0128241 0.00232753 8.37392e-005 0.0071 -2.3249 -0.0142 -3.18055e-015 -6.36111e-015 -6.36111e-015 0.6113 -8.7231 -2.0637 -6.36111e-015 -6.36111e-015 -0 -0.1927 -3.8059 -0.2383 -0.0160248 0.00298996 0.000856293 -0.1091 -2.1688 -0.1362 3.18055e-015 0 -9.54166e-015 -0.6151 -8.0947 -3.5641 -6.36111e-015 -6.36111e-015 -0 -0.4882 -2.341 -0.6462 -0.0125713 0.00312144 0.00282206 -0.3575 -1.7167 -0.4742 3.18055e-015 -3.18055e-015 -0 -1.42 -1.8761 1.4223 -6.36111e-015 -6.36111e-015 -0 -1.1471 -3.4929 2.6334 -3.18055e-015 -3.18055e-015 -0 -0.823 -2.3 1.6571 -3.18055e-015 3.18055e-015 -0 -2.2603 21.606 7.4023 18.6447 -9.5792 3.83745 -13.5187 -1.1334 -5.0155 -43.3816 -44.546 -2.44307 0.0994 -28.0499 -0.2431 40.0718 -26.9864 18.5409 -0.0679 -23.3996 -0.1402 21.8911 1.32769 -64.083 -0.7932 -9.0691 2.5189 -9.21453e-007 -2.35358e-006 3.3422e-006 0.8272 -3.3923 0.5977 6.48727e-006 5.21153e-006 -2.68155e-006 0.565 -2.3158 0.4082 -4.77083e-015 0 -1.59028e-015 -0.916 -9.2044 0.2193 -9.21453e-007 -2.35358e-006 3.3422e-006 -0.0117 -4.1944 -0.0248 0.0129493 0.00232835 -8.67759e-005 -0.0071 -2.3249 -0.0142 2.38542e-015 0 3.18055e-015 -0.6113 -8.7231 -2.0637 -9.21453e-007 -2.35358e-006 3.3422e-006 0.1927 -3.8059 -0.2383 0.0163184 0.00304454 -0.000872443 0.1091 -2.1688 -0.1362 2.38542e-015 -3.18055e-015 7.95139e-015 0.6151 -8.0947 -3.564 -9.21453e-007 -2.35358e-006 3.3422e-006 0.4882 -2.341 -0.6462 0.0145625 0.00369309 -0.00325472 0.3574 -1.7166 -0.4742 3.97569e-015 -3.18055e-015 1.59028e-015 1.4199 -1.8761 1.4221 -9.21453e-007 -2.35358e-006 3.3422e-006 1.1472 -3.4929 2.6336 6.48727e-006 5.21153e-006 -2.68155e-006 0.8229 -2.3 1.6571 -4.77083e-015 0 -1.59028e-015 -9.412 3.9771 -0.7758 -8.30276 -52.2517 -19.9169 -0.7531 -40.938 7.10543e-015 -177.316 13.2856 168.971 -1.77636e-015 -40.1986 0 -5.7261 37.8035 -11.0613 0 -4.4182 9.239 -1.59028e-015 3.18055e-015 3.18055e-015 9.4119 3.9773 -0.7758 8.34835 -51.9979 19.9237 0.7532 -40.9383 -7.10543e-015 177.343 13.2599 -168.978 -3.55271e-015 -40.1986 0 5.96665 36.9519 10.9313 1.77636e-015 -4.4182 9.239 -0 -1.88396e-009 -0 
7.92823 1.26335 -47.4895 -0 0 2.03502e-009 0 8.7983 -4.7612 0.231494 1.0022 -0.10054 -8.88178e-016 8.0291 0.4195 0.464854 2.00399 -0.205177 8.88178e-016 9.9351 -2.2114 0.464851 2.00397 -0.205176 1.77636e-015 22.3885 -0.4656 15.4607 -4.5251 13.0897 -0.0001 12.643 3.4389 0.0356359 9.08461 4.5371 2.2603 21.606 7.4023 -21.1204 -8.67397 -22.1671 13.5163 -1.1332 -5.0146 54.5138 -37.9206 12.663 -0.0995 -28.05 -0.2431 -34.4398 -34.1899 -16.0065 0.0679 -23.3996 -0.1402 -26.1165 -2.71504 -40.1417 0.7932 -9.069 2.5189 -3.53113e-031 -3.18055e-015 -6.36111e-015 -0.8272 -3.3923 0.5977 4.32399e-006 -6.31965e-006 -1.84457e-006 -0.5649 -2.3158 0.4082 1.95256e-022 3.51743e-006 -3.18055e-015 0.9159 -9.2044 0.2193 -3.53113e-031 -3.18055e-015 -6.36111e-015 0.0117 -4.1944 -0.0248 -0.01282 0.00232664 9.1132e-005 0.0071 -2.3249 -0.0142 -6.36111e-015 9.54166e-015 -3.18055e-015 0.6113 -8.7231 -2.0637 -3.53113e-031 -3.18055e-015 -6.36111e-015 -0.1927 -3.8059 -0.2383 -0.016042 0.00299586 0.000858574 -0.1091 -2.1688 -0.1362 -1.93704e-006 -3.79065e-006 -3.86951e-006 -0.6151 -8.0947 -3.5641 -3.53113e-031 -3.18055e-015 -6.36111e-015 -0.4882 -2.341 -0.6462 -0.0125882 0.00312537 0.00282095 -0.3575 -1.7167 -0.4742 4.61964e-006 -3.60096e-006 -7.82391e-008 -1.42 -1.8761 1.4223 -3.53113e-031 -3.18055e-015 -6.36111e-015 -1.1471 -3.4929 2.6334 4.32399e-006 -6.31965e-006 -1.84457e-006 -0.823 -2.3 1.6571 1.95256e-022 3.51743e-006 -3.18055e-015 -2.2603 21.606 7.4023 18.8579 -9.22509 4.09542 -13.5187 -1.1334 -5.0155 -43.5375 -44.4402 -2.55838 0.0994 -28.0499 -0.2431 39.9607 -26.9378 18.4863 -0.0679 -23.3996 -0.1402 21.4495 1.25586 -63.9939 -0.7932 -9.0691 2.5189 -7.15625e-015 3.18055e-015 -0 0.8272 -3.3923 0.5977 -7.95139e-016 -6.36111e-015 1.59028e-015 0.565 -2.3158 0.4082 8.82781e-032 -3.18055e-015 1.59028e-015 -0.916 -9.2044 0.2193 -7.15625e-015 3.18055e-015 -0 -0.0117 -4.1944 -0.0248 0.0129553 0.00232249 -8.73675e-005 -0.0071 -2.3249 -0.0142 3.97569e-015 -3.18055e-015 6.36111e-015 -0.6113 -8.7231 -2.0637 -7.15625e-015 3.18055e-015 -0 0.1927 -3.8059 -0.2383 0.0163431 0.00302577 -0.000881357 0.1091 -2.1688 -0.1362 -3.18055e-015 6.36111e-015 -1.59028e-015 0.6151 -8.0947 -3.564 -7.15625e-015 3.18055e-015 -0 0.4882 -2.341 -0.6462 0.014587 0.00367792 -0.00326916 0.3574 -1.7166 -0.4742 4.77083e-015 3.18055e-015 -3.18055e-015 1.4199 -1.8761 1.4221 -7.15625e-015 3.18055e-015 -0 1.1472 -3.4929 2.6336 -7.95139e-016 -6.36111e-015 1.59028e-015 0.8229 -2.3 1.6571 8.82781e-032 -3.18055e-015 1.59028e-015 -9.412 3.9771 -0.7758 -8.30276 -52.2517 -19.9169 -0.7531 -40.938 3.55271e-015 -177.316 13.2856 168.971 -1.77636e-015 -40.1986 -3.55271e-015 -5.72609 37.8035 -11.0613 8.88179e-016 -4.4182 9.239 1.59028e-015 -3.18055e-015 -0 9.4119 3.9773 -0.7758 8.34842 -51.9979 19.9238 0.7532 -40.9383 0 177.343 13.2599 -168.978 3.55271e-015 -40.1986 0 5.96663 36.9519 10.9314 1.77636e-015 -4.4182 9.239 -3.73077e-007 6.68891e-008 2.0545e-007 
7.92823 1.26335 -47.4895 -0 0 1.11001e-009 -8.88178e-016 8.7983 -4.7612 0.231097 0.959047 -0.0998731 0 8.0291 0.4195 0.463964 1.91768 -0.203658 0 9.9351 -2.2114 0.463964 1.91768 -0.203658 8.88178e-016 22.3885 -0.4656 15.283 -4.49417 12.9373 -0.0001 12.643 3.4389 0.0391367 8.98309 4.4859 2.2603 21.606 7.4023 -21.0688 -8.34268 -21.9437 13.5163 -1.1332 -5.0146 54.3381 -38.0353 12.537 -0.0995 -28.05 -0.2431 -34.688 -34.3097 -16.157 0.0679 -23.3996 -0.1402 -25.3441 -2.54628 -40.1495 0.7932 -9.069 2.5189 1.27222e-014 -9.54166e-015 -6.36111e-015 -0.8272 -3.3923 0.5977 3.18055e-015 -3.18055e-015 3.18055e-015 -0.5649 -2.3158 0.4082 -0 -6.36111e-015 -0 0.9159 -9.2044 0.2193 1.27222e-014 -9.54166e-015 -6.36111e-015 0.0117 -4.1944 -0.0248 -0.0127979 0.0023148 8.26863e-005 0.0071 -2.3249 -0.0142 3.18055e-015 0 3.18055e-015 0.6113 -8.7231 -2.0637 1.27222e-014 -9.54166e-015 -6.36111e-015 -0.1927 -3.8059 -0.2383 -0.0160786 0.00300807 0.000867026 -0.1091 -2.1688 -0.1362 -6.36111e-015 0 -3.18055e-015 -0.6151 -8.0947 -3.5641 1.27222e-014 -9.54166e-015 -6.36111e-015 -0.4882 -2.341 -0.6462 -0.01259 0.00312389 0.00282967 -0.3575 -1.7167 -0.4742 -5.29669e-031 -3.18055e-015 -9.54166e-015 -1.42 -1.8761 1.4223 1.27222e-014 -9.54166e-015 -6.36111e-015 -1.1471 -3.4929 2.6334 3.18055e-015 -3.18055e-015 3.18055e-015 -0.823 -2.3 1.6571 -0 -6.36111e-015 -0 -2.2603 21.606 7.4023 19.0693 -8.86994 4.35192 -13.5187 -1.1334 -5.0155 -43.692 -44.3348 -2.67254 0.0994 -28.0499 -0.2431 39.8489 -26.8887 18.4315 -0.0679 -23.3996 -0.1402 21.008 1.1833 -63.9052 -0.7932 -9.0691 2.5189 -3.97147e-006 -1.55408e-007 5.08071e-006 0.8272 -3.3923 0.5977 2.87408e-007 1.92099e-006 3.65583e-006 0.565 -2.3158 0.4082 4.41624e-006 5.24499e-006 -5.38076e-006 -0.916 -9.2044 0.2193 -3.97147e-006 -1.55408e-007 5.08071e-006 -0.0117 -4.1944 -0.0248 0.0129606 0.00233022 -9.09982e-005 -0.0071 -2.3249 -0.0142 1.3997e-006 3.00039e-006 -2.69199e-006 -0.6113 -8.7231 -2.0637 -3.97147e-006 -1.55408e-007 5.08071e-006 0.1927 -3.8059 -0.2383 0.0163367 0.00304773 -0.000870574 0.1091 -2.1688 -0.1362 9.85247e-006 -3.98076e-006 -6.50194e-006 0.6151 -8.0947 -3.564 -3.97147e-006 -1.55408e-007 5.08071e-006 0.4882 -2.341 -0.6462 0.0145782 0.0036846 -0.00326267 0.3574 -1.7166 -0.4742 4.77495e-006 2.0037e-006 -7.64791e-007 1.4199 -1.8761 1.4221 -3.97147e-006 -1.55408e-007 5.08071e-006 1.1472 -3.4929 2.6336 2.87408e-007 1.92099e-006 3.65583e-006 0.8229 -2.3 1.6571 4.41624e-006 5.24499e-006 -5.38076e-006 -9.412 3.9771 -0.7758 -8.30276 -52.2517 -19.9169 -0.7531 -40.938 0 -177.316 13.2856 168.971 8.88179e-016 -40.1986 3.55271e-015 -5.72609 37.8035 -11.0613 0 -4.4182 9.239 1.59028e-015 3.18055e-015 1.59028e-015 9.4119 3.9773 -0.7758 8.34842 -51.9979 19.9238 0.7532 -40.9383 0 177.343 13.2599 -168.978 3.55271e-015 -40.1986 0 5.96663 36.9519 10.9314 1.77636e-015 -4.4182 9.239 -3.73077e-007 6.68892e-008 2.0545e-007 
